<svg width="127" height="18" viewBox="0 0 127 18" fill="none" xmlns="http://www.w3.org/2000/svg">
<path d="M0 0H3.49138V14.7672H14.9483V18H0V0Z" fill="#00D57E"/>
<path d="M21.4396 18H17.9482V0H21.4396V18Z" fill="#00D57E"/>
<path d="M43.5 10.4741V14.5862C43.5 15.5172 43.1725 16.319 42.5173 16.9914C41.8621 17.6466 41.0776 17.9741 40.1638 17.9741L27.8018 18C26.75 18 25.888 17.5948 25.2156 16.7845C24.6983 16.1638 24.4397 15.4138 24.4397 14.5345V13.5C24.4397 13.4655 24.4569 13.4483 24.4914 13.4483L27.5949 13.4224C27.6294 13.4224 27.6466 13.4397 27.6466 13.4741V13.6293C27.6466 14.0086 27.7845 14.3103 28.0604 14.5345C28.2673 14.6897 28.4914 14.7672 28.7328 14.7672L39.2069 14.7414C39.5518 14.7414 39.8362 14.5948 40.0604 14.3017C40.1983 14.1121 40.2673 13.8793 40.2673 13.6034V11.069C40.2673 10.9138 40.2069 10.7759 40.0862 10.6552C39.9828 10.5345 39.8449 10.4741 39.6725 10.4741H27.388C26.5776 10.4741 25.8794 10.1897 25.2931 9.62069C24.7242 9.03448 24.4397 8.33621 24.4397 7.52586V3.38793C24.4397 2.4569 24.7673 1.66379 25.4225 1.00862C26.0776 0.336207 26.8707 0 27.8018 0H40.138C41.069 0 41.8621 0.336207 42.5173 1.00862C43.1725 1.66379 43.5 2.4569 43.5 3.38793V4.52586C43.5 4.56034 43.4828 4.57759 43.4483 4.57759H40.319C40.2845 4.57759 40.2673 4.56034 40.2673 4.52586V4.37069C40.2673 4.06034 40.1552 3.80172 39.9311 3.59483C39.7242 3.37069 39.4569 3.25862 39.1294 3.25862H28.7845C28.4742 3.25862 28.2069 3.37069 27.9828 3.59483C27.7587 3.80172 27.6466 4.06034 27.6466 4.37069V6.93103C27.6466 7.10345 27.7069 7.25 27.8276 7.37069C27.9483 7.47414 28.0862 7.52586 28.2414 7.52586H40.5518C41.3621 7.52586 42.0518 7.81897 42.6207 8.40517C43.2069 8.97414 43.5 9.66379 43.5 10.4741Z" fill="#00D57E"/>
<path d="M64.4741 0V3.23276H57.2328V18H53.7414V3.23276H46.5V0H64.4741Z" fill="#00D57E"/>
<path d="M70.9655 18H67.4741V0H70.9655V18Z" fill="#00D57E"/>
<path d="M91.6811 18H86.9483L77.457 3.77586V18H73.9656V0H78.957L88.1897 13.8362V0H91.6811V18Z" fill="#00D57E"/>
<path d="M109.862 15.0259H99.3879L98.069 18H94.681L102.259 0H106.991L114.569 18H111.207L109.862 15.0259ZM104.638 2.25L100.759 12.1293H108.491L104.638 2.25Z" fill="#00D57E"/>
<path d="M126.385 12H125.222V5.99997H126.385V12Z" fill="#00D57E"/>
<path d="M122.629 11.0086H119.138L118.698 12H117.569L120.095 6H121.672L124.198 12H123.078L122.629 11.0086ZM120.888 6.75L119.595 10.0431H122.172L120.888 6.75Z" fill="#00D57E"/>
</svg>
